HIERARCHY
ROOT Hips
{
	OFFSET 0.327225 85.456291 8.060652
	CHANNELS 6 Xposition Yposition Zposition Zrotation Yrotation Xrotation 
	JOINT Spine
	{
		OFFSET 0.000000 8.814246 -2.080107
		CHANNELS 3 Zrotation Yrotation Xrotation
		JOINT Spine1
		{
			OFFSET -0.000000 8.844141 0.000000
			CHANNELS 3 Zrotation Yrotation Xrotation
			JOINT Spine2
			{
				OFFSET 0.000000 11.682268 0.000000
				CHANNELS 3 Zrotation Yrotation Xrotation
				JOINT Spine3
				{
					OFFSET 0.000000 11.746700 0.000000
					CHANNELS 3 Zrotation Yrotation Xrotation
					JOINT Neck
					{
						OFFSET 0.000000 17.658264 0.000000
						CHANNELS 3 Zrotation Yrotation Xrotation
						JOINT Neck1
						{
							OFFSET 0.000000 5.101515 0.000000
							CHANNELS 3 Zrotation Yrotation Xrotation
							JOINT Head
							{
								OFFSET -0.000000 5.101515 -0.000000
								CHANNELS 3 Zrotation Yrotation Xrotation
								JOINT HeadEnd
								{
									OFFSET 0.000000 11.655085 0.000000
									CHANNELS 3 Zrotation Yrotation Xrotation
									End Site
									{
										OFFSET 0.000000 0.000000 0.000000
									}
								}
							}
						}
					}
					JOINT RightShoulder
					{
						OFFSET -2.625389 11.175210 -0.000000
						CHANNELS 3 Zrotation Yrotation Xrotation
						JOINT RightArm
						{
							OFFSET 0.000000 10.434715 0.000000
							CHANNELS 3 Zrotation Yrotation Xrotation
							JOINT RightForeArm
							{
								OFFSET -0.000000 29.628420 -0.000000
								CHANNELS 3 Zrotation Yrotation Xrotation
								JOINT RightHand
								{
									OFFSET 0.000000 22.857611 -0.000000
									CHANNELS 3 Zrotation Yrotation Xrotation
									JOINT RightHandThumb1
									{
										OFFSET -2.867323 3.959563 2.944291
										CHANNELS 3 Zrotation Yrotation Xrotation
										JOINT RightHandThumb2
										{
											OFFSET -0.000000 3.350399 0.000000
											CHANNELS 3 Zrotation Yrotation Xrotation
											JOINT RightHandThumb3
											{
												OFFSET -0.000000 3.756509 0.000000
												CHANNELS 3 Zrotation Yrotation Xrotation
												JOINT RightHandThumb4
												{
													OFFSET -0.000000 3.147345 0.000000
													CHANNELS 3 Zrotation Yrotation Xrotation
													End Site
													{
														OFFSET 0.000000 0.000000 0.000000
													}
												}
											}
										}
									}
									JOINT RightHandIndex1
									{
										OFFSET -0.086752 10.030893 2.345280
										CHANNELS 3 Zrotation Yrotation Xrotation
										JOINT RightHandIndex2
										{
											OFFSET -0.000000 4.061090 -0.000000
											CHANNELS 3 Zrotation Yrotation Xrotation
											JOINT RightHandIndex3
											{
												OFFSET 0.000000 3.248873 -0.000000
												CHANNELS 3 Zrotation Yrotation Xrotation
												JOINT RightHandIndex4
												{
													OFFSET 0.000000 2.639709 -0.000000
													CHANNELS 3 Zrotation Yrotation Xrotation
													End Site
													{
														OFFSET 0.000000 0.000000 0.000000
													}
												}
											}
										}
									}
									JOINT RightHandMiddle1
									{
										OFFSET 0.104102 9.502952 0.006768
										CHANNELS 3 Zrotation Yrotation Xrotation
										JOINT RightHandMiddle2
										{
											OFFSET -0.000000 4.568727 -0.000000
											CHANNELS 3 Zrotation Yrotation Xrotation
											JOINT RightHandMiddle3
											{
												OFFSET -0.000000 3.654981 -0.000000
												CHANNELS 3 Zrotation Yrotation Xrotation
												JOINT RightHandMiddle4
												{
													OFFSET -0.000000 2.741236 -0.000000
													CHANNELS 3 Zrotation Yrotation Xrotation
													End Site
													{
														OFFSET 0.000000 0.000000 0.000000
													}
												}
											}
										}
									}
									JOINT RightHandRing1
									{
										OFFSET 0.086752 8.921708 -2.267442
										CHANNELS 3 Zrotation Yrotation Xrotation
										JOINT RightHandRing2
										{
											OFFSET -0.000000 4.061090 0.000000
											CHANNELS 3 Zrotation Yrotation Xrotation
											JOINT RightHandRing3
											{
												OFFSET 0.000000 3.654981 -0.000000
												CHANNELS 3 Zrotation Yrotation Xrotation
												JOINT RightHandRing4
												{
													OFFSET 0.000000 2.741236 -0.000000
													CHANNELS 3 Zrotation Yrotation Xrotation
													End Site
													{
														OFFSET 0.000000 0.000000 0.000000
													}
												}
											}
										}
									}
									JOINT RightHandPinky1
									{
										OFFSET -0.173504 7.976997 -4.467199
										CHANNELS 3 Zrotation Yrotation Xrotation
										JOINT RightHandPinky2
										{
											OFFSET -0.000000 3.350399 0.000000
											CHANNELS 3 Zrotation Yrotation Xrotation
											JOINT RightHandPinky3
											{
												OFFSET 0.000000 2.842763 -0.000000
												CHANNELS 3 Zrotation Yrotation Xrotation
												JOINT RightHandPinky4
												{
													OFFSET -0.000000 2.639709 0.000000
													CHANNELS 3 Zrotation Yrotation Xrotation
													End Site
													{
														OFFSET 0.000000 0.000000 0.000000
													}
												}
											}
										}
									}
									JOINT RightForeArmEnd
									{
										OFFSET 0.000000 0.000000 0.000000
										CHANNELS 3 Zrotation Yrotation Xrotation
										End Site
										{
											OFFSET 0.000000 0.000000 0.000000
										}
									}
								}
								JOINT RightArmEnd
								{
									OFFSET 0.000000 0.000000 0.000000
									CHANNELS 3 Zrotation Yrotation Xrotation
									End Site
									{
										OFFSET 0.000000 0.000000 0.000000
									}
								}
							}
						}
					}
					JOINT LeftShoulder
					{
						OFFSET 2.625389 11.175210 0.000000
						CHANNELS 3 Zrotation Yrotation Xrotation
						JOINT LeftArm
						{
							OFFSET -0.000000 10.813635 0.000000
							CHANNELS 3 Zrotation Yrotation Xrotation
							JOINT LeftForeArm
							{
								OFFSET 0.000000 28.724781 -0.000000
								CHANNELS 3 Zrotation Yrotation Xrotation
								JOINT LeftHand
								{
									OFFSET 0.644384 25.716167 -0.328871
									CHANNELS 3 Zrotation Yrotation Xrotation
									JOINT LeftHandThumb1
									{
										OFFSET 2.867323 3.959563 2.944291
										CHANNELS 3 Zrotation Yrotation Xrotation
										JOINT LeftHandThumb2
										{
											OFFSET 0.000000 3.350399 -0.000000
											CHANNELS 3 Zrotation Yrotation Xrotation
											JOINT LeftHandThumb3
											{
												OFFSET 0.000000 3.756509 0.000000
												CHANNELS 3 Zrotation Yrotation Xrotation
												JOINT LeftHandThumb4
												{
													OFFSET 0.000000 3.100000 0.000000
													CHANNELS 3 Zrotation Yrotation Xrotation
													End Site
													{
														OFFSET 0.000000 0.000000 0.000000
													}
												}
											}
										}
									}
									JOINT LeftHandIndex1
									{
										OFFSET 0.086752 10.030893 2.345280
										CHANNELS 3 Zrotation Yrotation Xrotation
										JOINT LeftHandIndex2
										{
											OFFSET 0.000000 4.061090 0.000000
											CHANNELS 3 Zrotation Yrotation Xrotation
											JOINT LeftHandIndex3
											{
												OFFSET -0.000000 3.248873 -0.000000
												CHANNELS 3 Zrotation Yrotation Xrotation
												JOINT LeftHandIndex4
												{
													OFFSET -0.000000 2.639709 -0.000000
													CHANNELS 3 Zrotation Yrotation Xrotation
													End Site
													{
														OFFSET 0.000000 0.000000 0.000000
													}
												}
											}
										}
									}
									JOINT LeftHandMiddle1
									{
										OFFSET -0.104102 9.502952 0.006768
										CHANNELS 3 Zrotation Yrotation Xrotation
										JOINT LeftHandMiddle2
										{
											OFFSET 0.000000 4.568727 0.000000
											CHANNELS 3 Zrotation Yrotation Xrotation
											JOINT LeftHandMiddle3
											{
												OFFSET -0.000000 3.654981 -0.000000
												CHANNELS 3 Zrotation Yrotation Xrotation
												JOINT LeftHandMiddle4
												{
													OFFSET -0.000000 2.741236 -0.000000
													CHANNELS 3 Zrotation Yrotation Xrotation
													End Site
													{
														OFFSET 0.000000 0.000000 0.000000
													}
												}
											}
										}
									}
									JOINT LeftHandRing1
									{
										OFFSET -0.086752 8.921708 -2.267442
										CHANNELS 3 Zrotation Yrotation Xrotation
										JOINT LeftHandRing2
										{
											OFFSET 0.000000 4.061090 0.000000
											CHANNELS 3 Zrotation Yrotation Xrotation
											JOINT LeftHandRing3
											{
												OFFSET -0.000000 3.654981 -0.000000
												CHANNELS 3 Zrotation Yrotation Xrotation
												JOINT LeftHandRing4
												{
													OFFSET -0.000000 2.741236 -0.000000
													CHANNELS 3 Zrotation Yrotation Xrotation
													End Site
													{
														OFFSET 0.000000 0.000000 0.000000
													}
												}
											}
										}
									}
									JOINT LeftHandPinky1
									{
										OFFSET 0.173504 7.976997 -4.467199
										CHANNELS 3 Zrotation Yrotation Xrotation
										JOINT LeftHandPinky2
										{
											OFFSET 0.000000 3.350399 0.000000
											CHANNELS 3 Zrotation Yrotation Xrotation
											JOINT LeftHandPinky3
											{
												OFFSET 0.000000 2.842763 0.000000
												CHANNELS 3 Zrotation Yrotation Xrotation
												JOINT LeftHandPinky4
												{
													OFFSET 0.000000 2.639709 -0.000000
													CHANNELS 3 Zrotation Yrotation Xrotation
													End Site
													{
														OFFSET 0.000000 0.000000 0.000000
													}
												}
											}
										}
									}
									JOINT LeftForeArmEnd
									{
										OFFSET 0.000000 0.000000 0.000000
										CHANNELS 3 Zrotation Yrotation Xrotation
										End Site
										{
											OFFSET 0.000000 0.000000 0.000000
										}
									}
								}
								JOINT LeftArmEnd
								{
									OFFSET 0.000000 0.000000 0.000000
									CHANNELS 3 Zrotation Yrotation Xrotation
									End Site
									{
										OFFSET 0.000000 0.000000 0.000000
									}
								}
							}
						}
					}
				}
			}
		}
	}
	JOINT RightUpLeg
	{
		OFFSET -11.289943 0.000000 -0.000000
		CHANNELS 3 Zrotation Yrotation Xrotation
		JOINT RightLeg
		{
			OFFSET -0.000000 -38.200325 -0.000000
			CHANNELS 3 Zrotation Yrotation Xrotation
			JOINT RightFoot
			{
				OFFSET -0.000000 -39.900856 0.000000
				CHANNELS 3 Zrotation Yrotation Xrotation
				JOINT RightToeBase
				{
					OFFSET 0.000000 -0.000000 15.261641
					CHANNELS 3 Zrotation Yrotation Xrotation
					JOINT RightToeBaseEnd
					{
						OFFSET -0.000000 -0.000000 7.370709
						CHANNELS 3 Zrotation Yrotation Xrotation
						End Site
						{
							OFFSET 0.000000 0.000000 0.000000
						}
					}
				}
				JOINT RightLegEnd
				{
					OFFSET 0.000000 0.000000 0.000000
					CHANNELS 3 Zrotation Yrotation Xrotation
					End Site
					{
						OFFSET 0.000000 0.000000 0.000000
					}
				}
			}
			JOINT RightUpLegEnd
			{
				OFFSET 0.000000 0.000000 0.000000
				CHANNELS 3 Zrotation Yrotation Xrotation
				End Site
				{
					OFFSET 0.000000 0.000000 0.000000
				}
			}
		}
	}
	JOINT LeftUpLeg
	{
		OFFSET 11.315661 -0.000000 0.000000
		CHANNELS 3 Zrotation Yrotation Xrotation
		JOINT LeftLeg
		{
			OFFSET -0.000000 -38.200325 -0.000000
			CHANNELS 3 Zrotation Yrotation Xrotation
			JOINT LeftFoot
			{
				OFFSET -0.000000 -39.900856 0.000000
				CHANNELS 3 Zrotation Yrotation Xrotation
				JOINT LeftToeBase
				{
					OFFSET 0.000000 -0.000000 15.261641
					CHANNELS 3 Zrotation Yrotation Xrotation
					JOINT LeftToeBaseEnd
					{
						OFFSET -0.000000 0.000000 7.539996
						CHANNELS 3 Zrotation Yrotation Xrotation
						End Site
						{
							OFFSET 0.000000 0.000000 0.000000
						}
					}
				}
				JOINT LeftLegEnd
				{
					OFFSET 0.000000 0.000000 0.000000
					CHANNELS 3 Zrotation Yrotation Xrotation
					End Site
					{
						OFFSET 0.000000 0.000000 0.000000
					}
				}
			}
			JOINT LeftUpLegEnd
			{
				OFFSET 0.000000 0.000000 0.000000
				CHANNELS 3 Zrotation Yrotation Xrotation
				End Site
				{
					OFFSET 0.000000 0.000000 0.000000
				}
			}
		}
	}
}
MOTION
Frames: 4
Frame Time: 0.016667
-8.170933 86.733131 7.352217 -2.796234 4.725471 -22.330406 3.529077 -0.803214 9.898500 0.353308 -0.390968 2.520562 0.882415 -3.319788 15.347492 -0.203771 -0.902016 9.080652 6.127243 -0.204192 15.694867 -0.204610 1.722116 0.338015 -0.123997 0.350824 -21.500566 0.000000 0.000000 0.000000 93.255020 -0.984928 12.084964 46.574677 -36.816605 20.621508 -0.322539 11.098968 31.163519 10.531673 23.516369 -1.514245 -4.280684 0.676104 46.675682 0.000018 -0.000004 9.972186 0.000010 0.000043 7.291181 0.000029 0.000002 -0.000041 17.009937 1.077823 -7.662523 11.575059 0.016646 -0.318240 11.407221 0.103041 -0.315060 -0.000023 0.000012 -0.000021 15.022857 0.455682 -9.040447 10.453567 -0.036192 -0.116767 10.381027 0.030661 -0.095019 -0.000016 -0.000090 0.000013 14.938036 -0.612237 -9.337874 10.258345 0.086351 0.144970 10.246836 -0.042425 0.105527 -0.000001 -0.000389 -0.000005 14.467064 -1.597216 -10.822561 9.645729 0.114563 0.425662 9.709226 -0.168303 0.331909 -0.000109 0.000004 -0.000036 0.000000 0.000000 0.000000 0.000000 0.000000 0.000000 -91.052208 0.339086 10.023791 -59.364731 30.070028 7.384955 -0.606636 -5.745599 42.693794 -4.134444 -29.636650 -11.132922 4.993939 -0.720015 46.824272 0.000002 0.000037 11.226198 0.000193 0.000008 8.112829 -0.001328 -0.000007 -0.000271 -14.923322 1.089073 -8.452054 -9.763293 -0.020295 0.250526 -9.635341 0.070284 0.217140 0.000021 0.000213 0.000005 -13.683179 0.463399 -9.697983 -8.691121 -0.060434 0.087150 -8.672617 0.017826 0.075766 0.000033 -0.000024 0.000101 -13.738861 -0.551724 -10.097027 -8.643343 0.110634 -0.115541 -8.528349 -0.027647 -0.082087 0.001016 0.000000 -0.000000 -13.240065 -1.634628 -10.931613 -8.276503 0.185973 -0.293180 -8.297812 -0.098281 -0.264008 -0.000515 0.000010 -0.000053 0.000000 0.000000 0.000000 0.000000 0.000000 0.000000 1.533143 -4.956782 21.058714 -0.148200 -0.563212 14.301176 -3.477059 -10.388969 12.441226 -0.938936 0.935923 -16.611761 0.000000 0.000000 0.000000 0.000000 0.000000 0.000000 0.000000 0.000000 0.000000 9.364361 -4.417626 15.946385 0.412468 0.989769 24.366703 -3.083554 5.349938 8.527127 0.931179 -0.853343 -19.824818 0.000000 0.000000 0.000000 0.000000 0.000000 0.000000 0.000000 0.000000 0.000000 
-8.189485 86.733368 7.340573 -2.801890 4.772480 -22.336246 3.532908 -0.800996 9.898961 0.335375 -0.389171 2.497921 0.904321 -3.335538 15.396306 -0.200837 -0.901215 9.090752 6.191986 -0.252025 15.668212 -0.195535 1.709650 0.326620 -0.114699 0.349891 -21.471745 0.000000 0.000000 0.000000 93.228851 -0.974397 12.084102 46.612926 -36.770126 20.516933 -0.330368 11.158147 31.426140 10.601432 23.522165 -1.492760 -4.290905 0.676675 46.676643 0.000017 -0.000004 9.984617 0.000010 0.000043 7.300297 0.000029 0.000002 -0.000041 17.016996 1.079110 -7.627268 11.566970 0.014075 -0.313509 11.396605 0.100621 -0.311072 -0.000023 0.000012 -0.000021 15.034452 0.455812 -9.022431 10.445435 -0.037237 -0.114833 10.374361 0.029836 -0.093459 -0.000017 -0.000090 0.000013 14.952932 -0.612231 -9.350182 10.255981 0.087550 0.143905 10.246136 -0.041650 0.104694 -0.000001 -0.000404 -0.000005 14.473001 -1.597722 -10.858089 9.655573 0.117620 0.426776 9.718987 -0.166610 0.332083 -0.000116 0.000004 -0.000035 0.000000 0.000000 0.000000 0.000000 0.000000 0.000000 -91.030632 0.349141 10.021375 -59.334232 30.023619 7.405587 -0.594917 -5.806577 42.832287 -4.184515 -29.635763 -11.031418 4.997499 -0.720080 46.824543 0.000002 0.000037 11.229411 0.000195 0.000008 8.119252 -0.001326 -0.000006 -0.000308 -14.951709 1.088911 -8.414883 -9.759380 -0.020818 0.251561 -9.632980 0.069852 0.217849 0.000021 0.000182 0.000005 -13.710849 0.463367 -9.656931 -8.687633 -0.060663 0.087127 -8.669826 0.017681 0.075862 0.000052 -0.000024 0.000101 -13.758550 -0.552195 -10.065024 -8.639498 0.111125 -0.116208 -8.523683 -0.027506 -0.082712 0.001017 0.000000 0.000000 -13.248507 -1.636327 -10.899915 -8.271030 0.186554 -0.296053 -8.290516 -0.098251 -0.266538 -0.000517 0.000010 -0.000053 0.000000 0.000000 0.000000 0.000000 0.000000 0.000000 1.550297 -4.972248 21.042124 -0.148364 -0.564426 14.325597 -3.479521 -10.395829 12.431519 -0.936177 0.939044 -16.621395 0.000000 0.000000 0.000000 0.000000 0.000000 0.000000 0.000000 0.000000 0.000000 9.386501 -4.431016 15.950788 0.412450 0.990390 24.350107 -3.091525 5.329949 8.536730 0.933610 -0.855172 -19.830072 0.000000 0.000000 0.000000 0.000000 0.000000 0.000000 0.000000 0.000000 0.000000 
-8.205331 86.733894 7.330662 -2.805288 4.818803 -22.344244 3.536959 -0.798520 9.898014 0.318815 -0.386978 2.473487 0.924472 -3.344614 15.440724 -0.203432 -0.898049 9.100250 6.253816 -0.301967 15.638054 -0.187221 1.693913 0.314885 -0.104102 0.348761 -21.442940 0.000000 0.000000 0.000000 93.200104 -0.964592 12.084590 46.655922 -36.718147 20.417299 -0.338663 11.214744 31.692776 10.664598 23.525951 -1.468426 -4.301326 0.677318 46.677826 0.000017 -0.000004 9.997582 0.000009 0.000043 7.310133 0.000029 0.000003 -0.000041 17.020681 1.080586 -7.586973 11.558531 0.011763 -0.308967 11.385920 0.098361 -0.307166 -0.000023 0.000012 -0.000021 15.042227 0.456003 -8.999409 10.436909 -0.038199 -0.112907 10.367264 0.029079 -0.091892 -0.000017 -0.000090 0.000013 14.962996 -0.612216 -9.357013 10.253250 0.088666 0.142689 10.245531 -0.040904 0.103758 -0.000001 -0.000427 -0.000005 14.477058 -1.598133 -10.888124 9.664283 0.120631 0.426731 9.727507 -0.164958 0.331576 -0.000122 0.000004 -0.000035 0.000000 0.000000 0.000000 0.000000 0.000000 0.000000 -91.011848 0.358418 10.013216 -59.318386 29.958864 7.420846 -0.582956 -5.872601 42.968918 -4.232257 -29.656622 -10.926166 5.005233 -0.720540 46.825916 0.000002 0.000037 11.239969 0.000197 0.000009 8.131537 -0.001326 -0.000006 -0.000334 -14.949791 1.088938 -8.364898 -9.740867 -0.021183 0.252370 -9.616243 0.069561 0.218250 0.000021 0.000157 0.000005 -13.712523 0.463376 -9.606426 -8.670748 -0.060808 0.087006 -8.653312 0.017559 0.075857 0.000082 -0.000024 0.000101 -13.759851 -0.552637 -10.029536 -8.622763 0.111567 -0.116599 -8.506248 -0.027369 -0.083165 0.001020 0.000000 0.000000 -13.244867 -1.638008 -10.871682 -8.254683 0.187091 -0.298050 -8.271788 -0.098268 -0.268399 -0.000519 0.000010 -0.000054 0.000000 0.000000 0.000000 0.000000 0.000000 0.000000 1.563322 -4.989085 21.030975 -0.148530 -0.565512 14.347102 -3.483766 -10.401671 12.422847 -0.933676 0.941949 -16.628759 0.000000 0.000000 0.000000 0.000000 0.000000 0.000000 0.000000 0.000000 0.000000 9.408043 -4.442637 15.961685 0.412453 0.991228 24.327332 -3.100299 5.305316 8.544155 0.935933 -0.857218 -19.831535 0.000000 0.000000 0.000000 0.000000 0.000000 0.000000 0.000000 0.000000 0.000000 
-8.218298 86.734642 7.322697 -2.806676 4.863050 -22.353483 3.541152 -0.796037 9.895832 0.304075 -0.384635 2.447580 0.942897 -3.348230 15.478987 -0.210364 -0.893260 9.108828 6.311059 -0.351851 15.607297 -0.180098 1.676170 0.304125 -0.092953 0.347474 -21.414267 0.000000 0.000000 0.000000 93.171066 -0.955552 12.084552 46.698811 -36.668114 20.325014 -0.347243 11.267036 31.960325 10.716637 23.521441 -1.444387 -4.311432 0.678076 46.679279 0.000017 -0.000004 10.010826 0.000009 0.000043 7.320170 0.000029 0.000003 -0.000041 17.021767 1.082219 -7.544486 11.550729 0.009859 -0.304788 11.376052 0.096417 -0.303455 -0.000023 0.000012 -0.000021 15.046430 0.456245 -8.973825 10.429208 -0.039024 -0.111061 10.360951 0.028433 -0.090380 -0.000017 -0.000091 0.000013 14.967751 -0.612171 -9.360111 10.251013 0.089608 0.141371 10.245852 -0.040246 0.102745 -0.000001 -0.000457 -0.000005 14.478812 -1.598381 -10.913583 9.672567 0.123336 0.425591 9.735433 -0.163521 0.330381 -0.000127 0.000004 -0.000035 0.000000 0.000000 0.000000 0.000000 0.000000 0.000000 -90.994797 0.365935 9.999527 -59.321201 29.878771 7.425756 -0.571248 -5.939008 43.099304 -4.274580 -29.701193 -10.820364 5.016206 -0.721362 46.828274 0.000003 0.000037 11.256823 0.000199 0.000009 8.148278 -0.001327 -0.000006 -0.000348 -14.916720 1.089096 -8.305974 -9.707922 -0.021311 0.253064 -9.585353 0.069475 0.218438 0.000020 0.000138 0.000005 -13.687367 0.463413 -9.550259 -8.640785 -0.060848 0.086835 -8.623474 0.017489 0.075788 0.000121 -0.000024 0.000100 -13.741885 -0.553025 -9.994269 -8.593245 0.111896 -0.116740 -8.476418 -0.027268 -0.083450 0.001024 0.000000 0.000000 -13.229438 -1.639501 -10.850244 -8.227951 0.187453 -0.299150 -8.242389 -0.098426 -0.269587 -0.000518 0.000010 -0.000054 0.000000 0.000000 0.000000 0.000000 0.000000 0.000000 1.572410 -5.006781 21.025154 -0.148669 -0.566423 14.364570 -3.488555 -10.404991 12.414218 -0.931454 0.944531 -16.633575 0.000000 0.000000 0.000000 0.000000 0.000000 0.000000 0.000000 0.000000 0.000000 9.428879 -4.452460 15.978347 0.412494 0.992338 24.298195 -3.109574 5.277439 8.550724 0.938058 -0.859414 -19.830841 0.000000 0.000000 0.000000 0.000000 0.000000 0.000000 0.000000 0.000000 0.000000 
